<?xml version="1.0"?>
<svg width="640" height="280" xmlns="http://www.w3.org/2000/svg" xmlns:svg="http://www.w3.org/2000/svg">
 <!-- Created with SVG-edit - https://github.com/SVG-Edit/svgedit-->
 <g class="layer">
  <title>Layer 1</title>
  <g id="svg_1">
   <polygon fill="#fcf9f9" id="svg_2" points="65.53981018066406,29.706228090585228 53.04996871948242,66.92582646319761 15.896134376525879,66.80216092843739 5.423642635345459,29.506107964906278 36.105140686035156,6.579587747929054 65.53981018066406,29.706228090585228 " stroke="#000000"/>
   <g id="svg_3">
    <polygon fill="#fcf9f9" id="svg_4" points="509.4367370605469,69.16972659581052 496.947509765625,99.61945966157191 459.79376220703125,99.51624128484809 449.322021484375,69.00516674497749 480.0021057128906,50.24659147895409 509.4367370605469,69.16972659581052 " stroke="#000000"/>
    <polygon fill="#fcf9f9" id="svg_5" points="448.6748352050781,69.16972659581052 436.18560791015625,99.61945966157191 399.0318908691406,99.51624128484809 388.5600891113281,69.00516674497749 419.2402038574219,50.24659147895409 448.6748352050781,69.16972659581052 " stroke="#000000"/>
    <polygon fill="#fcf9f9" id="svg_6" points="384.53729248046875,69.16972659581052 372.0480651855469,99.61945966157191 334.8943176269531,99.51624128484809 324.4225158691406,69.00516674497749 355.1026306152344,50.24659147895409 384.53729248046875,69.16972659581052 " stroke="#000000"/>
    <polygon fill="#fcf9f9" id="svg_7" points="320.39971923828125,69.16972659581052 307.9104919433594,99.61945966157191 270.7567443847656,99.51624128484809 260.28497314453125,69.00516674497749 290.9650573730469,50.24659147895409 320.39971923828125,69.16972659581052 " stroke="#000000"/>
    <polygon fill="#fcf9f9" id="svg_8" points="63.85063934326172,69.16919631101018 51.36149978637695,99.61889818354803 14.207747459411621,99.51567980682421 3.735963821411133,69.00458967034183 34.416107177734375,50.24601440431843 63.85063934326172,69.16919631101018 " stroke="#000000"/>
    <polygon fill="#fcf9f9" id="svg_9" points="256.26312255859375,69.16960182291632 243.77392578125,99.61935048528949 206.6201629638672,99.51613210856567 196.14837646484375,69.00504197208329 226.8284912109375,50.24646670605989 256.26312255859375,69.16960182291632 " stroke="#000000"/>
    <polygon fill="#fcf9f9" id="svg_10" points="192.1255645751953,69.16960182291632 179.6363525390625,99.61935048528949 142.4825897216797,99.51613210856567 132.0108184814453,69.00504197208329 162.69094848632812,50.24646670605989 192.1255645751953,69.16960182291632 " stroke="#000000"/>
    <polygon fill="#fcf9f9" id="svg_11" points="129.67575073242188,70.6805079919618 117.18663787841797,101.1301786712761 80.03316497802734,101.02689790810518 69.56138610839844,70.51582336823458 100.24127197265625,51.75731048865828 129.67575073242188,70.6805079919618 " stroke="#000000"/>
    <polygon fill="#fcf9f9" id="svg_12" points="570.9547729492188,69.65322156082084 558.4656372070312,100.10292343335868 521.3118286132812,99.99972065324664 510.8400573730469,69.48866170998781 541.520263671875,50.73005525074086 570.9547729492188,69.65322156082084 " stroke="#000000"/>
    <polygon fill="#fcf9f9" id="svg_13" points="636.7801513671875,71.16411213325455 624.2910766601562,101.61378281256884 587.13720703125,101.51059562906858 576.6654052734375,70.99952108919797 607.3456420898438,52.240930226562796 636.7801513671875,71.16411213325455 " stroke="#000000"/>
   </g>
   <rect fill="#fcf9f9" height="277.008581" id="svg_14" stroke="#000000" width="637.999987" x="0.500021" y="1.995709"/>
   <g id="svg_15">
    <g id="svg_16">
     <polygon fill="#fcf9f9" id="svg_17" points="508.6788024902344,192.83499621363126 496.18951416015625,223.2846980861691 459.03582763671875,223.18147970944528 448.5640563964844,192.67042076618645 479.244140625,173.91178311371596 508.6788024902344,192.83499621363126 " stroke="#000000"/>
     <polygon fill="#fcf9f9" id="svg_18" points="447.9168701171875,192.83499621363126 435.4276123046875,223.2846980861691 398.27392578125,223.18147970944528 387.8021240234375,192.67042076618645 418.4822692871094,173.91178311371596 447.9168701171875,192.83499621363126 " stroke="#000000"/>
     <polygon fill="#fcf9f9" id="svg_19" points="383.7793273925781,192.83499621363126 371.2900695800781,223.2846980861691 334.1363830566406,223.18147970944528 323.6645812988281,192.67042076618645 354.3446960449219,173.91178311371596 383.7793273925781,192.83499621363126 " stroke="#000000"/>
     <polygon fill="#fcf9f9" id="svg_20" points="319.6417541503906,192.83499621363126 307.1524963378906,223.2846980861691 269.9988098144531,223.18147970944528 259.5270080566406,192.67042076618645 290.2071228027344,173.91178311371596 319.6417541503906,192.83499621363126 " stroke="#000000"/>
     <polygon fill="#fcf9f9" id="svg_21" points="63.0926399230957,192.83443473560737 50.603477478027344,223.28407422169812 13.449771881103516,223.18088703819785 2.977991819381714,192.66985928816257 33.65810775756836,173.91131521536272 63.0926399230957,192.83443473560737 " stroke="#000000"/>
     <polygon fill="#fcf9f9" id="svg_22" points="255.505126953125,192.8348402475135 243.01596069335938,223.2845733132749 205.86216735839844,223.18138612977464 195.390380859375,192.67029599329226 226.0704803466797,173.91172072726886 255.505126953125,192.8348402475135 " stroke="#000000"/>
     <polygon fill="#fcf9f9" id="svg_23" points="191.3675537109375,192.8348402475135 178.87838745117188,223.2845733132749 141.72459411621094,223.18138612977464 131.2528076171875,192.67029599329226 161.93292236328125,173.91172072726886 191.3675537109375,192.8348402475135 " stroke="#000000"/>
     <polygon fill="#fcf9f9" id="svg_24" points="128.917724609375,194.345746416559 116.42867279052734,224.79538590264974 79.2751693725586,224.69213633270238 68.80338287353516,194.18104619622 99.4832534790039,175.4225333166437 128.917724609375,194.345746416559 " stroke="#000000"/>
     <polygon fill="#fcf9f9" id="svg_25" points="570.1968383789062,193.31845998541803 557.7077026367188,223.76816185795587 520.5538330078125,223.66494348123206 510.0821228027344,193.15388453797323 540.76220703125,174.39527807872628 570.1968383789062,193.31845998541803 " stroke="#000000"/>
     <polygon fill="#fcf9f9" id="svg_26" points="636.0221557617188,194.82933496123997 623.5330810546875,225.27906802700136 586.3792724609375,225.17584965027754 575.907470703125,194.6647907070187 606.5877075195312,175.90618424777176 636.0221557617188,194.82933496123997 " stroke="#000000"/>
    </g>
    <g id="svg_27">
     <polygon fill="#fcf9f9" id="svg_28" points="508.6788024902344,137.43327334618198 496.18951416015625,167.88300641194337 459.03582763671875,167.779756841996 448.5640563964844,137.26869789873717 479.244140625,118.51007584287845 508.6788024902344,137.43327334618198 " stroke="#000000"/>
     <polygon fill="#fcf9f9" id="svg_29" points="447.9168701171875,137.43327334618198 435.4276123046875,167.88300641194337 398.27392578125,167.779756841996 387.8021240234375,137.26869789873717 418.4822692871094,118.51007584287845 447.9168701171875,137.43327334618198 " stroke="#000000"/>
     <polygon fill="#fcf9f9" id="svg_30" points="383.7793273925781,137.43327334618198 371.2900695800781,167.88300641194337 334.1363830566406,167.779756841996 323.6645812988281,137.26869789873717 354.3446960449219,118.51007584287845 383.7793273925781,137.43327334618198 " stroke="#000000"/>
     <polygon fill="#fcf9f9" id="svg_31" points="319.6417541503906,137.43327334618198 307.1524963378906,167.88300641194337 269.9988098144531,167.779756841996 259.5270080566406,137.26869789873717 290.2071228027344,118.51007584287845 319.6417541503906,137.43327334618198 " stroke="#000000"/>
     <polygon fill="#fcf9f9" id="svg_32" points="63.0926399230957,137.43268067493455 50.603477478027344,167.8823825474724 13.449771881103516,167.77919536397212 2.977991819381714,137.2681364207133 33.65810775756836,118.50956115468989 63.0926399230957,137.43268067493455 " stroke="#000000"/>
     <polygon fill="#fcf9f9" id="svg_33" points="255.505126953125,137.43314857328778 243.01596069335938,167.88291283227272 205.86216735839844,167.77966326232536 195.390380859375,137.26857312584298 226.0704803466797,118.51001345643135 255.505126953125,137.43314857328778 " stroke="#000000"/>
     <polygon fill="#fcf9f9" id="svg_34" points="191.3675537109375,137.43314857328778 178.87838745117188,167.88291283227272 141.72459411621094,167.77966326232536 131.2528076171875,137.26857312584298 161.93292236328125,118.51001345643135 191.3675537109375,137.43314857328778 " stroke="#000000"/>
     <polygon fill="#fcf9f9" id="svg_35" points="128.917724609375,138.94402354910972 116.42867279052734,169.39366303520046 79.2751693725586,169.2904134652531 68.80338287353516,138.77935452199426 99.4832534790039,120.02077925597087 128.917724609375,138.94402354910972 " stroke="#000000"/>
     <polygon fill="#fcf9f9" id="svg_36" points="570.1968383789062,137.91673711796875 557.7077026367188,168.3664389905066 520.5538330078125,168.26325180700633 510.0821228027344,137.75216167052395 540.76220703125,118.99357080788877 570.1968383789062,137.91673711796875 " stroke="#000000"/>
     <polygon fill="#fcf9f9" id="svg_37" points="636.0221557617188,139.42764328701423 623.5330810546875,169.87734515955208 586.3792724609375,169.7741579760518 575.907470703125,139.26306783956943 606.5877075195312,120.50446138032248 636.0221557617188,139.42764328701423 " stroke="#000000"/>
    </g>
   </g>
   <g id="svg_38">
    <polygon fill="#fcf9f9" id="svg_39" points="508.6788024902344,246.3899554740824 496.18939208984375,276.83971973306734 459.03582763671875,276.73647016312 448.5640563964844,246.2253800266376 479.244140625,227.46677356739065 508.6788024902344,246.3899554740824 " stroke="#000000"/>
    <polygon fill="#fcf9f9" id="svg_40" points="447.9168701171875,246.3899554740824 435.4275207519531,276.83971973306734 398.27392578125,276.73647016312 387.8021240234375,246.2253800266376 418.4822692871094,227.46677356739065 447.9168701171875,246.3899554740824 " stroke="#000000"/>
    <polygon fill="#fcf9f9" id="svg_41" points="383.7793273925781,246.3899554740824 371.2899475097656,276.83971973306734 334.1363830566406,276.73647016312 323.6645812988281,246.2253800266376 354.3446960449219,227.46677356739065 383.7793273925781,246.3899554740824 " stroke="#000000"/>
    <polygon fill="#fcf9f9" id="svg_42" points="319.6417541503906,246.3899554740824 307.15240478515625,276.83971973306734 269.9988098144531,276.73647016312 259.5270080566406,246.2253800266376 290.2071228027344,227.46677356739065 319.6417541503906,246.3899554740824 " stroke="#000000"/>
    <polygon fill="#fcf9f9" id="svg_43" points="63.092586517333984,246.38942518928206 50.603424072265625,276.83909586859636 13.449722290039062,276.7359086850961 2.9779419898986816,246.22484974183726 33.65805435180664,227.46627447581386 63.092586517333984,246.38942518928206 " stroke="#000000"/>
    <polygon fill="#fcf9f9" id="svg_44" points="255.50503540039062,246.38986189441175 243.01596069335938,276.83959496017314 205.86216735839844,276.7363453902258 195.390380859375,246.22528644696695 226.07037353515625,227.46671118094355 255.50503540039062,246.38986189441175 " stroke="#000000"/>
    <polygon fill="#fcf9f9" id="svg_45" points="191.36746215820312,246.38986189441175 178.87838745117188,276.83959496017314 141.7245330810547,276.7363453902258 131.2527618408203,246.22528644696695 161.9328155517578,227.46671118094355 191.36746215820312,246.38986189441175 " stroke="#000000"/>
    <polygon fill="#fcf9f9" id="svg_46" points="128.91766357421875,247.90070567701014 116.4286117553711,278.35037635632443 79.27511596679688,278.2470955931535 68.80333709716797,247.7360366498947 99.48319244384766,228.9774613838713 128.91766357421875,247.90070567701014 " stroke="#000000"/>
    <polygon fill="#fcf9f9" id="svg_47" points="570.1968383789062,246.87348163231627 557.7075805664062,277.3231835048541 520.5538330078125,277.21993393490675 510.0821228027344,246.70887499164792 540.76220703125,227.95029972562452 570.1968383789062,246.87348163231627 " stroke="#000000"/>
    <polygon fill="#fcf9f9" id="svg_48" points="636.0220336914062,248.38432541491466 623.5330810546875,278.83405848067605 586.3792724609375,278.73084010395223 575.907470703125,248.21974996746985 606.5877075195312,229.4611435082229 636.0220336914062,248.38432541491466 " stroke="#000000"/>
   </g>
   <g id="svg_49">
    <g id="svg_50">
     <polygon fill="#fcf9f9" id="svg_51" points="508.6788024902344,80.18480246834633 496.18939208984375,110.63456672733128 459.03582763671875,110.53131715738391 448.5640563964844,80.0202426175133 479.244140625,61.261636158266356 508.6788024902344,80.18480246834633 " stroke="#000000"/>
     <polygon fill="#fcf9f9" id="svg_52" points="447.9168701171875,80.18480246834633 435.4275207519531,110.63456672733128 398.27392578125,110.53131715738391 387.8021240234375,80.0202426175133 418.4822692871094,61.261636158266356 447.9168701171875,80.18480246834633 " stroke="#000000"/>
     <polygon fill="#fcf9f9" id="svg_53" points="383.7793273925781,80.18480246834633 371.2899475097656,110.63456672733128 334.1363830566406,110.53131715738391 323.6645812988281,80.0202426175133 354.3446960449219,61.261636158266356 383.7793273925781,80.18480246834633 " stroke="#000000"/>
     <polygon fill="#fcf9f9" id="svg_54" points="319.6417541503906,80.18480246834633 307.15240478515625,110.63456672733128 269.9988098144531,110.53131715738391 259.5270080566406,80.0202426175133 290.2071228027344,61.261636158266356 319.6417541503906,80.18480246834633 " stroke="#000000"/>
     <polygon fill="#fcf9f9" id="svg_55" points="63.092586517333984,80.18424099032245 50.603424072265625,110.6339428628603 13.449722290039062,110.53075567936003 2.9779419898986816,80.01966554287765 33.65805435180664,61.261121470077796 63.092586517333984,80.18424099032245 " stroke="#000000"/>
     <polygon fill="#fcf9f9" id="svg_56" points="255.50503540039062,80.18469329206391 243.01596069335938,110.63445755104885 205.86216735839844,110.53120798110149 195.390380859375,80.02011784461911 226.07037353515625,61.26157377181926 255.50503540039062,80.18469329206391 " stroke="#000000"/>
     <polygon fill="#fcf9f9" id="svg_57" points="191.36746215820312,80.18469329206391 178.87838745117188,110.63445755104885 141.7245330810547,110.53120798110149 131.2527618408203,80.02011784461911 161.9328155517578,61.26157377181926 191.36746215820312,80.18469329206391 " stroke="#000000"/>
     <polygon fill="#fcf9f9" id="svg_58" points="128.91766357421875,81.69558386449762 116.4286117553711,112.14523894720014 79.27511596679688,112.041973780641 68.80333709716797,81.5308992407704 99.48319244384766,62.772355167970545 128.91766357421875,81.69558386449762 " stroke="#000000"/>
     <polygon fill="#fcf9f9" id="svg_59" points="570.1968383789062,80.66829743335666 557.7075805664062,111.1179993058945 520.5538330078125,111.01479652578246 510.0821228027344,80.50373758252363 540.76220703125,61.74513112327668 570.1968383789062,80.66829743335666 " stroke="#000000"/>
     <polygon fill="#fcf9f9" id="svg_60" points="636.0220336914062,82.17918800579037 623.5330810546875,112.62888987832821 586.3792724609375,112.52568709821617 575.907470703125,82.01462815495734 606.5877075195312,63.25602169571039 636.0220336914062,82.17918800579037 " stroke="#000000"/>
    </g>
    <g id="svg_61">
     <polygon fill="#fcf9f9" id="svg_62" points="508.6788024902344,24.78309519750883 496.18939208984375,55.232843859881996 459.03582763671875,55.129609886546405 448.5640563964844,24.618519750064024 479.244140625,5.859913290817076 508.6788024902344,24.78309519750883 " stroke="#000000"/>
     <polygon fill="#fcf9f9" id="svg_63" points="447.9168701171875,24.78309519750883 435.4275207519531,55.232843859881996 398.27392578125,55.129609886546405 387.8021240234375,24.618519750064024 418.4822692871094,5.859913290817076 447.9168701171875,24.78309519750883 " stroke="#000000"/>
     <polygon fill="#fcf9f9" id="svg_64" points="383.7793273925781,24.78309519750883 371.2899475097656,55.232843859881996 334.1363830566406,55.129609886546405 323.6645812988281,24.618519750064024 354.3446960449219,5.859913290817076 383.7793273925781,24.78309519750883 " stroke="#000000"/>
     <polygon fill="#fcf9f9" id="svg_65" points="319.6417541503906,24.78309519750883 307.15240478515625,55.232843859881996 269.9988098144531,55.129609886546405 259.5270080566406,24.618519750064024 290.2071228027344,5.859913290817076 319.6417541503906,24.78309519750883 " stroke="#000000"/>
     <polygon fill="#fcf9f9" id="svg_66" points="63.092586517333984,24.78251812287317 50.603424072265625,55.232219995411015 13.449722290039062,55.12903281191075 2.9779419898986816,24.617973868651916 33.65805435180664,5.859414199240291 63.092586517333984,24.78251812287317 " stroke="#000000"/>
     <polygon fill="#fcf9f9" id="svg_67" points="255.50503540039062,24.782986021226407 243.01596069335938,55.232734683599574 205.86216735839844,55.12948511365221 195.390380859375,24.618426170393377 226.07037353515625,5.859866500981752 255.50503540039062,24.782986021226407 " stroke="#000000"/>
     <polygon fill="#fcf9f9" id="svg_68" points="191.36746215820312,24.782986021226407 178.87838745117188,55.232734683599574 141.7245330810547,55.12948511365221 131.2527618408203,24.618426170393377 161.9328155517578,5.859866500981752 191.36746215820312,24.782986021226407 " stroke="#000000"/>
     <polygon fill="#fcf9f9" id="svg_69" points="128.91766357421875,26.293876593660116 116.4286117553711,56.74351607975086 79.27511596679688,56.640266509803496 68.80333709716797,26.12919196993289 99.48319244384766,7.37064789713304 128.91766357421875,26.293876593660116 " stroke="#000000"/>
     <polygon fill="#fcf9f9" id="svg_70" points="570.1968383789062,25.26659016251915 557.7075805664062,55.71627643844522 520.5538330078125,55.61308925494495 510.0821228027344,25.102014715074347 540.76220703125,6.3434082558273985 570.1968383789062,25.26659016251915 " stroke="#000000"/>
     <polygon fill="#fcf9f9" id="svg_71" points="636.0220336914062,26.77748073495286 623.5330810546875,57.22716701087893 586.3792724609375,57.12397982737866 575.907470703125,26.612905287508056 606.5877075195312,7.854298828261108 636.0220336914062,26.77748073495286 " stroke="#000000"/>
    </g>
   </g>
   <ellipse cx="317.812183" cy="142.346725" fill="#f9f7f7" id="svg_72" rx="249.798937" ry="121.883776" stroke="#0000bf" stroke-dasharray="null" stroke-linecap="null" stroke-linejoin="null" stroke-width="0"/>
   <text fill="#00007f" font-family="Serif" font-size="24" font-style="italic" font-weight="bold" id="svg_73" stroke="#0000bf" stroke-dasharray="null" stroke-linecap="null" stroke-linejoin="null" stroke-width="0" text-anchor="middle" transform="matrix(7.81337 0 0 7.84034 -896.421 -1083.96)" x="153.681952" xml:space="preserve" y="164.37072">iPaul</text>
  </g>
 </g>
</svg>